<svg width="16" height="16" viewBox="0 0 16 16" fill="none" xmlns="http://www.w3.org/2000/svg">
<g id="Tail icon">
<path id="Icon" d="M11.3333 5.99992V4.66659C11.3333 3.93021 10.7364 3.33325 10 3.33325H3.33333C2.59695 3.33325 2 3.93021 2 4.66659V8.66659C2 9.40297 2.59695 9.99992 3.33333 9.99992H4.66667M6 12.6666H12.6667C13.403 12.6666 14 12.0696 14 11.3333V7.33325C14 6.59687 13.403 5.99992 12.6667 5.99992H6C5.26362 5.99992 4.66667 6.59687 4.66667 7.33325V11.3333C4.66667 12.0696 5.26362 12.6666 6 12.6666ZM10.6667 9.33325C10.6667 10.0696 10.0697 10.6666 9.33333 10.6666C8.59695 10.6666 8 10.0696 8 9.33325C8 8.59687 8.59695 7.99992 9.33333 7.99992C10.0697 7.99992 10.6667 8.59687 10.6667 9.33325Z" stroke="#F5F5F5" stroke-linecap="round" stroke-linejoin="round"/>
</g>
</svg>
