<svg width="26" height="26" viewBox="0 0 26 26" fill="none" xmlns="http://www.w3.org/2000/svg">
<g id="chat-alt-2">
<path id="Icon" d="M18.4167 8.66671H20.5833C21.78 8.66671 22.75 9.63676 22.75 10.8334V17.3334C22.75 18.53 21.78 19.5 20.5833 19.5H18.4167V23.8334L14.0833 19.5H9.75C9.15169 19.5 8.61002 19.2575 8.21794 18.8654M8.21794 18.8654L11.9167 15.1667H16.25C17.4466 15.1667 18.4167 14.1967 18.4167 13V6.50004C18.4167 5.30342 17.4466 4.33337 16.25 4.33337H5.41667C4.22005 4.33337 3.25 5.30342 3.25 6.50004V13C3.25 14.1967 4.22005 15.1667 5.41667 15.1667H7.58333V19.5L8.21794 18.8654Z" stroke="#EBA800" stroke-width="1.5" stroke-linecap="round" stroke-linejoin="round"/>
</g>
</svg>
