<svg width="25" height="24" viewBox="0 0 25 24" fill="none" xmlns="http://www.w3.org/2000/svg">
<g id="chat-alt-2">
<path id="Icon" d="M17.5 8H19.5C20.6046 8 21.5 8.89543 21.5 10V16C21.5 17.1046 20.6046 18 19.5 18H17.5V22L13.5 18H9.5C8.94772 18 8.44772 17.7761 8.08579 17.4142M8.08579 17.4142L11.5 14H15.5C16.6046 14 17.5 13.1046 17.5 12V6C17.5 4.89543 16.6046 4 15.5 4H5.5C4.39543 4 3.5 4.89543 3.5 6V12C3.5 13.1046 4.39543 14 5.5 14H7.5V18L8.08579 17.4142Z" stroke="#404040" stroke-width="1.5" stroke-linecap="round" stroke-linejoin="round"/>
</g>
</svg>
