<svg width="26" height="26" viewBox="0 0 26 26" fill="none" xmlns="http://www.w3.org/2000/svg">
<g id="clipboard-check">
<path id="Icon" d="M10.2804 14.6363C9.98752 14.3434 9.51264 14.3434 9.21975 14.6363C8.92686 14.9292 8.92686 15.4041 9.21975 15.697L10.2804 14.6363ZM11.9167 17.3333L11.3864 17.8637C11.6793 18.1566 12.1542 18.1566 12.4471 17.8637L11.9167 17.3333ZM16.7804 13.5303C17.0733 13.2374 17.0733 12.7626 16.7804 12.4697C16.4875 12.1768 16.0126 12.1768 15.7198 12.4697L16.7804 13.5303ZM19.8334 7.58333V20.5833H21.3334V7.58333H19.8334ZM18.4167 22H7.58341V23.5H18.4167V22ZM6.16675 20.5833V7.58333H4.66675V20.5833H6.16675ZM7.58341 6.16667H9.75008V4.66667H7.58341V6.16667ZM16.2501 6.16667H18.4167V4.66667H16.2501V6.16667ZM7.58341 22C6.80101 22 6.16675 21.3657 6.16675 20.5833H4.66675C4.66675 22.1942 5.97258 23.5 7.58341 23.5V22ZM19.8334 20.5833C19.8334 21.3657 19.1992 22 18.4167 22V23.5C20.0276 23.5 21.3334 22.1942 21.3334 20.5833H19.8334ZM21.3334 7.58333C21.3334 5.9725 20.0276 4.66667 18.4167 4.66667V6.16667C19.1992 6.16667 19.8334 6.80093 19.8334 7.58333H21.3334ZM6.16675 7.58333C6.16675 6.80093 6.80101 6.16667 7.58341 6.16667V4.66667C5.97258 4.66667 4.66675 5.9725 4.66675 7.58333H6.16675ZM9.21975 15.697L11.3864 17.8637L12.4471 16.803L10.2804 14.6363L9.21975 15.697ZM12.4471 17.8637L16.7804 13.5303L15.7198 12.4697L11.3864 16.803L12.4471 17.8637ZM11.9167 4H14.0834V2.5H11.9167V4ZM14.0834 6.83333H11.9167V8.33333H14.0834V6.83333ZM11.9167 6.83333C11.1343 6.83333 10.5001 6.19907 10.5001 5.41667H9.00008C9.00008 7.0275 10.3059 8.33333 11.9167 8.33333V6.83333ZM15.5001 5.41667C15.5001 6.19907 14.8658 6.83333 14.0834 6.83333V8.33333C15.6942 8.33333 17.0001 7.0275 17.0001 5.41667H15.5001ZM14.0834 4C14.8658 4 15.5001 4.63426 15.5001 5.41667H17.0001C17.0001 3.80584 15.6942 2.5 14.0834 2.5V4ZM11.9167 2.5C10.3059 2.5 9.00008 3.80584 9.00008 5.41667H10.5001C10.5001 4.63426 11.1343 4 11.9167 4V2.5Z" fill="#EBA800"/>
</g>
</svg>
