<svg width="26" height="26" viewBox="0 0 26 26" fill="none" xmlns="http://www.w3.org/2000/svg">
<g id="collection">
<path id="Icon" d="M20.5833 11.9167H5.41667M20.5833 11.9167C21.78 11.9167 22.75 12.8867 22.75 14.0833V20.5833C22.75 21.78 21.78 22.75 20.5833 22.75H5.41667C4.22005 22.75 3.25 21.78 3.25 20.5833V14.0833C3.25 12.8867 4.22005 11.9167 5.41667 11.9167M20.5833 11.9167V9.75C20.5833 8.55338 19.6133 7.58333 18.4167 7.58333M5.41667 11.9167V9.75C5.41667 8.55338 6.38672 7.58333 7.58333 7.58333M7.58333 7.58333V5.41667C7.58333 4.22005 8.55338 3.25 9.75 3.25H16.25C17.4466 3.25 18.4167 4.22005 18.4167 5.41667V7.58333M7.58333 7.58333H18.4167" stroke="#EBA800" stroke-width="1.5" stroke-linecap="round" stroke-linejoin="round"/>
</g>
</svg>
