<svg width="29" height="28" viewBox="0 0 29 28" fill="none" xmlns="http://www.w3.org/2000/svg">
<g id="Group">
<g id="Vector">
<path id="Vector_2" d="M4.12231 20.7538H7.74753C7.74753 22.7599 9.36566 24.3772 11.3728 24.3772C13.3799 24.3772 14.998 22.7599 14.998 20.7538H18.6232C18.6232 24.7504 15.3869 28.0005 11.3728 28.0005C7.35857 27.9849 4.12231 24.7504 4.12231 20.7538Z" fill="#EBA800"/>
</g>
<path id="Vector_3" d="M18.601 13.5008V20.7476H14.9758L14.9758 13.5008H18.601Z" fill="#EBA800"/>
<path id="Vector_4" d="M7.73596 13.5111L7.73596 20.7578H4.11077L4.11077 13.5111H7.73596Z" fill="#EBA800"/>
<g id="Vector_5">
<path id="Vector_6" d="M11.3569 0.97286L9.55212 4.11417C7.82508 3.11891 5.60016 3.70985 4.6044 5.436C3.60863 7.16215 4.19987 9.38589 5.9269 10.3812L4.12207 13.5225C0.652435 11.5164 -0.53004 7.09985 1.47706 3.632C3.46859 0.164154 7.90287 -1.0332 11.3569 0.97286Z" fill="#EBA800"/>
</g>
<path id="Vector_7" d="M10.3633 17.1541L4.08447 13.5308L5.89707 10.393L12.1759 14.0163L10.3633 17.1541Z" fill="#EBA800"/>
<path id="Vector_8" d="M15.7943 7.74494L9.51538 4.12158L11.328 0.98378L17.6069 4.60714L15.7943 7.74494Z" fill="#EBA800"/>
<g id="Vector_9">
<path id="Vector_10" d="M17.6429 4.5964L19.4478 7.73771C21.1748 6.74245 23.3997 7.33338 24.3955 9.05953C25.3913 10.7857 24.8 13.0094 23.073 14.0047L24.8778 17.146C28.3475 15.1399 29.5299 10.7234 27.5228 7.25554C25.5313 3.77214 21.097 2.59033 17.6429 4.5964Z" fill="#EBA800"/>
</g>
<path id="Vector_11" d="M18.5854 20.7853L16.7728 17.6475L23.1368 13.975L24.9494 17.1128L18.5854 20.7853Z" fill="#EBA800"/>
<path id="Vector_12" d="M13.1435 11.3888L11.3309 8.25098L17.8689 4.47809L19.6815 7.61592L13.1435 11.3888Z" fill="#EBA800"/>
</g>
</svg>
