<svg width="176" height="54" viewBox="0 0 176 54" fill="none" xmlns="http://www.w3.org/2000/svg">
<g id="Group 7">
<g id="Group">
<path id="Vector" d="M17.0831 47.1038C18.1646 47.8698 18.753 48.4702 18.8483 48.9103C18.911 49.3803 18.565 50.1463 17.8131 51.2085C17.0613 52.2707 16.4184 52.9906 15.8845 53.3654C15.2879 53.1155 14.536 52.6863 13.6261 52.0751C12.7163 51.4666 12.0434 50.9097 11.6048 50.4098C11.2916 50.9722 10.8829 51.5508 10.3817 52.1457C9.88045 52.7379 9.47183 53.1454 9.15855 53.3654C8.532 53.0829 7.7311 52.6075 6.75858 51.9338C5.78606 51.2601 5.09685 50.6896 4.68823 50.2224C4.8762 49.565 5.34747 48.6902 6.09934 47.5955C6.8512 46.5007 7.47775 45.9547 7.98172 45.9547C8.48569 45.9547 9.23483 46.3051 10.24 47.0087C11.2425 47.7123 11.8554 48.2991 12.0734 48.769C12.512 47.9867 12.9669 47.3211 13.4382 46.7751C13.9095 46.2263 14.3317 45.9547 14.7076 45.9547C15.2089 45.9547 16.0016 46.3377 17.0831 47.1038ZM23.4113 13.049C22.4387 12.378 21.7495 11.8048 21.3409 11.3375C21.5289 10.6801 22.0002 9.8054 22.752 8.71063C23.5039 7.61585 24.1332 7.06982 24.6344 7.06982C25.1356 7.06982 25.8875 7.42298 26.8927 8.12657C27.8952 8.83016 28.5081 9.41693 28.7261 9.88418C29.1646 9.10181 29.6196 8.43897 30.0909 7.89022C30.5621 7.34419 30.9844 7.06982 31.3603 7.06982C31.8615 7.06982 32.6543 7.45286 33.7358 8.21893C34.8172 8.985 35.4057 9.58807 35.4983 10.0254C35.5609 10.4954 35.215 11.2615 34.4631 12.3237C33.7112 13.3858 33.0683 14.1057 32.5344 14.4806C31.9378 14.2307 31.186 13.8015 30.2761 13.1902C29.3662 12.579 28.6934 12.0248 28.2521 11.525C27.9388 12.0873 27.5302 12.6659 27.0289 13.2609C26.5277 13.8558 26.1191 14.2633 25.8058 14.4806C25.1792 14.1981 24.3783 13.7227 23.4058 13.049H23.4113Z" fill="#040404"/>
<path id="Vector_2" d="M88.036 8.37943C88.5373 8.03714 89.1475 7.34714 89.8694 6.31485C90.5913 5.28255 90.9209 4.54908 90.8582 4.109C90.7656 3.70423 90.2071 3.13918 89.1883 2.4193C88.1695 1.69941 87.4095 1.34082 86.9055 1.34082C86.5595 1.34082 86.1618 1.59075 85.7069 2.09059C85.2519 2.59044 84.8379 3.16907 84.4592 3.82648C84.0833 4.48388 83.8463 5.00003 83.7537 5.37491C84.1596 5.81228 84.8351 6.35831 85.775 7.01572C86.7148 7.67312 87.4694 8.12679 88.0333 8.37671L88.036 8.37943Z" fill="#040404"/>
<path id="Vector_3" d="M82.8385 13.7282C83.8247 14.4155 84.6174 14.8854 85.214 15.1354C85.5272 14.918 85.9359 14.5187 86.4371 13.9401C86.9383 13.3614 87.347 12.791 87.6603 12.2286C88.1615 12.7285 88.867 13.2854 89.7769 13.8939C90.6868 14.5024 91.4087 14.918 91.9399 15.1354C92.4738 14.7931 93.1167 14.0895 93.8686 13.0246C94.6204 11.9624 94.9664 11.1963 94.9037 10.7264C94.8111 10.289 94.2363 9.68593 93.1875 8.91986C92.136 8.15379 91.346 7.77076 90.8121 7.77076C90.4361 7.77076 89.9976 8.04513 89.4936 8.59116C88.9924 9.1399 88.5374 9.78644 88.1288 10.5389C87.8782 10.0391 87.2271 9.43058 86.1756 8.71069C85.1241 7.9908 84.3804 7.6784 83.9418 7.77347C83.4406 7.86855 82.8195 8.43903 82.0839 9.48491C81.3457 10.5335 80.8989 11.3702 80.7437 11.995C81.1495 12.465 81.8497 13.0436 82.8358 13.7309L82.8385 13.7282Z" fill="#040404"/>
<g id="Vector_4">
<path d="M10.616 43.969C7.4587 43.969 4.86804 43.1078 2.91483 41.4154C0.980691 39.7366 0 37.24 0 33.9938C0 32.1628 0.256069 30.1254 0.76276 27.9331C1.24221 25.8631 1.92869 23.7197 2.80314 21.5519L8.3958 23.3693C7.26801 26.6618 6.69594 29.3484 6.69594 31.3641C6.69594 32.9914 7.12908 34.2573 7.98718 35.1266C8.84801 36.0013 10.0793 36.4441 11.6512 36.4441C14.1056 36.4441 17.331 35.3819 21.2429 33.2902L21.8558 32.9615L21.3355 32.4997C20.4746 31.7363 19.5103 31.0246 18.4697 30.3862C17.4536 29.7641 16.2849 29.0822 14.9964 28.3596L14.4625 28.0526L16.4811 22.6304C20.7934 23.4861 24.4219 23.918 27.2714 23.918C27.789 23.918 28.5899 23.8854 29.6523 23.823L30.2325 23.7876L30.0963 23.2253C29.7177 21.6497 29.2382 20.0551 28.6689 18.4822C28.6171 18.3029 28.5599 18.1236 28.5 17.9688L35.076 16.4529C35.5691 18.1562 35.817 20.0143 35.817 21.9757C35.817 23.5893 35.6481 25.1622 35.3103 26.6536C34.997 28.0472 34.5585 29.2208 34.0082 30.1471C32.2784 30.647 29.9901 31.0816 27.2087 31.4375L26.7729 31.4945L26.7838 31.9319C26.8137 33.0701 26.7838 34.1812 26.6911 35.2298C26.6067 36.1915 26.4977 36.9738 26.3642 37.5606C24.0923 39.4432 21.548 40.9943 18.7993 42.1679C16.0207 43.355 13.2666 43.9581 10.6187 43.9581L10.616 43.969ZM40.4235 43.5235C39.4483 43.116 38.3151 42.4749 37.0456 41.6137C35.7489 40.7797 34.7737 40.0055 34.1362 39.3046C35.5773 37.1341 37.0075 34.5507 38.3886 31.6195C39.8188 28.6476 41.0283 25.5996 41.9818 22.5543L47.6997 24.4668C47.1603 27.4143 46.2123 30.666 44.8802 34.1459C44.014 36.3952 43.1123 38.4381 42.197 40.2201C41.426 41.7169 40.8322 42.8253 40.4263 43.5207L40.4235 43.5235ZM82.3917 31.8667C81.2257 31.8667 80.1361 31.5869 79.1472 31.0354C78.1665 30.4921 77.3765 29.6717 76.7963 28.6014L76.6573 28.346H75.7012L75.5568 28.5389C74.5843 29.8347 73.5872 30.6796 72.5984 31.049C71.5768 31.432 70.3128 31.6276 68.8418 31.6276H51.3201V6.31201H58.2503V23.8284L68.8418 23.8719C70.1575 23.8719 71.2717 23.7822 72.1598 23.6056C73.116 23.4155 73.9986 22.9129 74.7886 22.1088C75.5132 21.3699 75.9981 20.2615 76.2297 18.8055H79.2507C79.5014 22.3533 80.7953 24.1544 83.0972 24.1544C84.2931 24.1544 85.3692 23.679 86.2899 22.7418C87.1099 21.9078 87.7419 20.6364 88.1696 18.963L91.2206 19.433C91.1879 19.778 91.1716 20.0497 91.1716 20.2453C91.1716 23.6301 93.0975 24.3418 94.7157 24.3418C95.4267 24.3418 96.2848 24.1978 97.339 23.9017L97.7885 23.7768L97.6796 23.3231C97.3962 22.1278 97.0503 20.9298 96.6553 19.7617C96.4128 19.0472 96.233 18.5202 96.105 18.1562L102.665 16.6431C103.152 18.2757 103.4 20.1638 103.4 22.2609C103.4 23.8773 103.237 25.4366 102.918 26.8954C102.616 28.2754 102.18 29.4435 101.621 30.3753C99.611 31.3017 97.636 31.7689 95.7508 31.7689C94.3588 31.7689 93.1112 31.4945 92.0433 30.9539C90.9863 30.4188 90.1255 29.6201 89.4853 28.5769L89.3437 28.346H88.3766L88.2349 28.5769C87.592 29.6255 86.7557 30.4459 85.7533 31.011C84.7508 31.576 83.6203 31.864 82.3944 31.864L82.3917 31.8667ZM107.361 31.6331V6.31745H114.291V31.6331H107.361Z" fill="#040404"/>
<path d="M114.291 38.4346C114.236 38.8268 114.072 39.373 113.797 40.0734C113.522 40.8017 113.302 41.278 113.137 41.5021C112.285 41.5021 111.241 41.5861 110.004 41.7542C108.795 41.9223 107.723 42.1184 106.789 42.3425C106.679 42.1744 106.597 41.8943 106.542 41.5021C106.487 41.1379 106.459 40.7597 106.459 40.3675C106.459 39.9473 106.487 39.6812 106.542 39.5691C107.036 39.345 107.627 39.1489 108.314 38.9808C107.737 38.2805 107.449 37.5521 107.449 36.7957C107.449 36.2075 107.627 35.6472 107.984 35.1149C108.369 34.5826 108.836 34.1484 109.386 33.8123C109.963 33.5041 110.526 33.35 111.076 33.35C111.516 33.35 111.887 33.4481 112.189 33.6442C112.794 34.0084 113.096 34.5686 113.096 35.325C113.096 35.8853 112.917 36.3895 112.56 36.8378C112.038 36.5856 111.543 36.4596 111.076 36.4596C110.719 36.4596 110.417 36.5296 110.169 36.6697C109.949 36.8378 109.839 37.0479 109.839 37.3C109.839 37.6922 109.991 38.0984 110.293 38.5186C111.392 38.2945 112.409 38.1824 113.343 38.1824L114.126 38.2245L114.291 38.4346Z" fill="#040404"/>
</g>
</g>
<g id="Layer 1">
<path id="Vector_5" d="M174.999 21.095C173.465 19.2376 170.724 18.9836 168.878 20.5275L163.828 24.7487C163.824 24.7388 163.823 24.7289 163.819 24.719L170.859 16.9365C172.474 15.1501 172.343 12.3855 170.569 10.7624C168.792 9.13759 166.043 9.26955 164.429 11.0543L158.991 17.0685C158.881 16.9761 158.771 16.8837 158.659 16.793L162.952 10.411C164.297 8.4118 163.775 5.69339 161.787 4.34078C159.799 2.98982 157.096 3.51272 155.751 5.51194L150.38 13.4989C150.27 13.4907 150.16 13.4857 150.05 13.4791L153.841 6.45712C154.985 4.33583 154.205 1.68175 152.095 0.530384C149.986 -0.620982 147.347 0.16419 146.202 2.28548L138.057 17.372L135.974 11.7009C135.143 9.43615 132.641 8.27984 130.391 9.11615C128.134 9.9508 126.985 12.4647 127.816 14.7295L134.754 33.6132C134.857 33.892 134.987 34.1542 135.136 34.3967C136.406 37.5704 138.738 40.335 141.953 42.0901C147.141 44.9223 153.406 44.3565 158.135 40.8018C158.164 40.7787 174.431 27.251 174.431 27.251C176.278 25.7087 176.531 22.9523 174.995 21.095H174.999ZM151.813 26.484C151.917 25.8225 152.532 25.3705 153.189 25.4745C153.847 25.5784 154.297 26.1969 154.193 26.8584C154.09 27.5199 153.475 27.9718 152.817 27.8679C152.159 27.764 151.71 27.1454 151.813 26.484ZM145.582 25.5025C145.686 24.841 146.301 24.3891 146.958 24.493C147.616 24.5969 148.066 25.2155 147.962 25.8769C147.859 26.5384 147.244 26.9904 146.586 26.8864C145.928 26.7825 145.479 26.164 145.582 25.5025ZM155.896 32.8726C154.644 35.9341 151.431 37.8508 148.036 37.3164C144.531 36.7654 142.005 33.7847 141.884 30.3471C141.854 29.4894 142.712 28.8824 143.509 29.1908C147.101 30.583 150.947 31.19 154.792 30.9723C154.807 30.9723 154.823 30.9723 154.838 30.9756C155.707 31.1274 156.232 32.0494 155.896 32.8726Z" fill="#EBA800"/>
</g>
</g>
</svg>
