<svg width="37" height="36" viewBox="0 0 37 36" fill="none" xmlns="http://www.w3.org/2000/svg">
<g id="Media / Social icon">
<path id="bg" d="M0.5 18C0.5 27.9411 8.55888 36 18.5 36C28.4411 36 36.5 27.9411 36.5 18C36.5 8.05888 28.4411 0 18.5 0C8.55888 0 0.5 8.05888 0.5 18Z" fill="#2867B2"/>
<path id="linkedin" d="M13.55 27H9.725V14.9625H13.55V27ZM11.6375 13.275C10.4 13.275 9.5 12.375 9.5 11.1375C9.5 9.9 10.5125 9 11.6375 9C12.875 9 13.775 9.9 13.775 11.1375C13.775 12.375 12.875 13.275 11.6375 13.275ZM27.5 27H23.675V20.475C23.675 18.5625 22.8875 18 21.7625 18C20.6375 18 19.5125 18.9 19.5125 20.5875V27H15.6875V14.9625H19.2875V16.65C19.625 15.8625 20.975 14.625 22.8875 14.625C25.025 14.625 27.275 15.8625 27.275 19.575V27H27.5Z" fill="white"/>
</g>
</svg>
