<svg width="37" height="36" viewBox="0 0 37 36" fill="none" xmlns="http://www.w3.org/2000/svg">
<g id="Media / Social icon">
<path id="bg" d="M0.5 18C0.5 27.9411 8.55888 36 18.5 36C28.4411 36 36.5 27.9411 36.5 18C36.5 8.05888 28.4411 0 18.5 0C8.55888 0 0.5 8.05888 0.5 18Z" fill="#F00073"/>
<g id="instagram">
<path d="M18.5001 10.35C20.9751 10.35 21.3126 10.35 22.3251 10.35C23.2251 10.35 23.6751 10.575 24.0126 10.6875C24.4626 10.9125 24.8001 11.025 25.1376 11.3625C25.4751 11.7 25.7001 12.0375 25.8126 12.4875C25.9251 12.825 26.0376 13.275 26.1501 14.175C26.1501 15.1875 26.1501 15.4125 26.1501 18C26.1501 20.5875 26.1501 20.8125 26.1501 21.825C26.1501 22.725 25.9251 23.175 25.8126 23.5125C25.5876 23.9625 25.4751 24.3 25.1376 24.6375C24.8001 24.975 24.4626 25.2 24.0126 25.3125C23.6751 25.425 23.2251 25.5375 22.3251 25.65C21.3126 25.65 21.0876 25.65 18.5001 25.65C15.9126 25.65 15.6876 25.65 14.6751 25.65C13.7751 25.65 13.3251 25.425 12.9876 25.3125C12.5376 25.0875 12.2001 24.975 11.8626 24.6375C11.5251 24.3 11.3001 23.9625 11.1876 23.5125C11.0751 23.175 10.9626 22.725 10.8501 21.825C10.8501 20.8125 10.8501 20.5875 10.8501 18C10.8501 15.4125 10.8501 15.1875 10.8501 14.175C10.8501 13.275 11.0751 12.825 11.1876 12.4875C11.4126 12.0375 11.5251 11.7 11.8626 11.3625C12.2001 11.025 12.5376 10.8 12.9876 10.6875C13.3251 10.575 13.7751 10.4625 14.6751 10.35C15.6876 10.35 16.0251 10.35 18.5001 10.35ZM18.5001 8.66248C15.9126 8.66248 15.6876 8.66248 14.6751 8.66248C13.6626 8.66248 12.9876 8.88748 12.4251 9.11248C11.8626 9.33748 11.3001 9.67498 10.7376 10.2375C10.1751 10.8 9.9501 11.25 9.6126 11.925C9.3876 12.4875 9.2751 13.1625 9.1626 14.175C9.1626 15.1875 9.1626 15.525 9.1626 18C9.1626 20.5875 9.1626 20.8125 9.1626 21.825C9.1626 22.8375 9.3876 23.5125 9.6126 24.075C9.8376 24.6375 10.1751 25.2 10.7376 25.7625C11.3001 26.325 11.7501 26.55 12.4251 26.8875C12.9876 27.1125 13.6626 27.225 14.6751 27.3375C15.6876 27.3375 16.0251 27.3375 18.5001 27.3375C20.9751 27.3375 21.3126 27.3375 22.3251 27.3375C23.3376 27.3375 24.0126 27.1125 24.5751 26.8875C25.1376 26.6625 25.7001 26.325 26.2626 25.7625C26.8251 25.2 27.0501 24.75 27.3876 24.075C27.6126 23.5125 27.7251 22.8375 27.8376 21.825C27.8376 20.8125 27.8376 20.475 27.8376 18C27.8376 15.525 27.8376 15.1875 27.8376 14.175C27.8376 13.1625 27.6126 12.4875 27.3876 11.925C27.1626 11.3625 26.8251 10.8 26.2626 10.2375C25.7001 9.67498 25.2501 9.44998 24.5751 9.11248C24.0126 8.88748 23.3376 8.77498 22.3251 8.66248C21.3126 8.66248 21.0876 8.66248 18.5001 8.66248Z" fill="white"/>
<path d="M18.5001 13.1625C15.8001 13.1625 13.6626 15.3 13.6626 18C13.6626 20.7 15.8001 22.8375 18.5001 22.8375C21.2001 22.8375 23.3376 20.7 23.3376 18C23.3376 15.3 21.2001 13.1625 18.5001 13.1625ZM18.5001 21.15C16.8126 21.15 15.3501 19.8 15.3501 18C15.3501 16.3125 16.7001 14.85 18.5001 14.85C20.1876 14.85 21.6501 16.2 21.6501 18C21.6501 19.6875 20.1876 21.15 18.5001 21.15Z" fill="white"/>
<path d="M23.4501 14.175C24.0714 14.175 24.5751 13.6713 24.5751 13.05C24.5751 12.4287 24.0714 11.925 23.4501 11.925C22.8288 11.925 22.3251 12.4287 22.3251 13.05C22.3251 13.6713 22.8288 14.175 23.4501 14.175Z" fill="white"/>
</g>
</g>
</svg>
