<svg width="25" height="24" viewBox="0 0 25 24" fill="none" xmlns="http://www.w3.org/2000/svg">
<g id="Frame">
<path id="Vector" d="M18.482 18.725C17.7833 17.7999 16.8792 17.0496 15.8412 16.5334C14.8031 16.0171 13.6594 15.7489 12.5 15.75C11.3406 15.7489 10.1969 16.0171 9.15882 16.5334C8.12075 17.0496 7.21674 17.7999 6.518 18.725M18.482 18.725C19.8455 17.5122 20.8071 15.9135 21.2412 14.1411C21.6752 12.3686 21.5603 10.5061 20.9115 8.80047C20.2627 7.09486 19.1107 5.62677 17.6084 4.59089C16.1061 3.55501 14.3243 3.00029 12.4995 3.00029C10.6747 3.00029 8.89293 3.55501 7.3906 4.59089C5.88827 5.62677 4.73633 7.09486 4.08753 8.80047C3.43874 10.5061 3.32375 12.3686 3.75782 14.1411C4.19188 15.9135 5.1545 17.5122 6.518 18.725M18.482 18.725C16.836 20.1932 14.7056 21.0031 12.5 21C10.294 21.0034 8.16423 20.1934 6.518 18.725M15.5 9.75C15.5 10.5456 15.1839 11.3087 14.6213 11.8713C14.0587 12.4339 13.2956 12.75 12.5 12.75C11.7043 12.75 10.9413 12.4339 10.3787 11.8713C9.81607 11.3087 9.5 10.5456 9.5 9.75C9.5 8.95435 9.81607 8.19128 10.3787 7.62867C10.9413 7.06607 11.7043 6.74999 12.5 6.74999C13.2956 6.74999 14.0587 7.06607 14.6213 7.62867C15.1839 8.19128 15.5 8.95435 15.5 9.75Z"  stroke-linecap="round" stroke-linejoin="round"/>
</g>
</svg>
