<svg width="29" height="29" viewBox="0 0 29 29" fill="none" xmlns="http://www.w3.org/2000/svg">
<g id="newspaper">
<path id="Icon" d="M22.9583 24.1666H6.04167C4.70698 24.1666 3.625 23.0846 3.625 21.7499L3.625 7.24992C3.625 5.91523 4.70698 4.83325 6.04167 4.83325L18.125 4.83325C19.4597 4.83325 20.5417 5.91523 20.5417 7.24992V8.45825M22.9583 24.1666C21.6236 24.1666 20.5417 23.0846 20.5417 21.7499L20.5417 8.45825M22.9583 24.1666C24.293 24.1666 25.375 23.0846 25.375 21.7499V10.8749C25.375 9.54023 24.293 8.45825 22.9583 8.45825L20.5417 8.45825M15.7083 4.83325L10.875 4.83325M8.45833 19.3333H15.7083M8.45833 9.66659H15.7083V14.4999H8.45833V9.66659Z" stroke="#040404" stroke-width="1.8" stroke-linecap="round" stroke-linejoin="round"/>
</g>
</svg>
