<svg width="19" height="21" viewBox="0 0 19 21" fill="none" xmlns="http://www.w3.org/2000/svg">
<path id="Vector" d="M12.1737 15.5855C14.0377 15.3649 15.8691 14.925 17.63 14.275C16.1387 12.6231 15.3147 10.4759 15.318 8.25046V7.55017V7.50015C15.318 5.90818 14.6856 4.38141 13.5599 3.25572C12.4342 2.13003 10.9075 1.49762 9.3155 1.49762C7.72353 1.49762 6.19676 2.13003 5.07107 3.25572C3.94538 4.38141 3.31297 5.90818 3.31297 7.50015V8.25046C3.31599 10.476 2.49161 12.6233 1 14.275C2.73373 14.9153 4.5615 15.3605 6.4573 15.5855M12.1737 15.5855C10.2749 15.8108 8.35611 15.8108 6.4573 15.5855M12.1737 15.5855C12.3179 16.0356 12.3537 16.5133 12.2783 16.9799C12.203 17.4464 12.0185 17.8885 11.7399 18.2703C11.4613 18.652 11.0966 18.9626 10.6753 19.1767C10.254 19.3908 9.78807 19.5024 9.3155 19.5024C8.84292 19.5024 8.37703 19.3908 7.95574 19.1767C7.53444 18.9626 7.16967 18.652 6.8911 18.2703C6.61253 17.8885 6.42805 17.4464 6.35267 16.9799C6.27728 16.5133 6.31313 16.0356 6.4573 15.5855"  stroke-linecap="round" stroke-linejoin="round"/>
</svg>
