<svg width="19" height="21" viewBox="0 0 19 21" fill="none" xmlns="http://www.w3.org/2000/svg">
<g id="Group 1">
<path id="Vector" d="M12.1708 15.5842C14.0342 15.3636 15.8652 14.9238 17.6256 14.274C16.1347 12.6226 15.311 10.4759 15.3142 8.25106V7.55095V7.50094C15.3142 5.90939 14.682 4.38303 13.5566 3.25763C12.4312 2.13224 10.9049 1.5 9.3133 1.5C7.72175 1.5 6.19539 2.13224 5.07 3.25763C3.9446 4.38303 3.31236 5.90939 3.31236 7.50094V8.25106C3.31538 10.476 2.49122 12.6227 1 14.274C2.73327 14.9141 4.56056 15.3592 6.45586 15.5842M12.1708 15.5842C10.2724 15.8094 8.35417 15.8094 6.45586 15.5842M12.1708 15.5842C12.3149 16.0341 12.3507 16.5117 12.2754 16.9781C12.2 17.4445 12.0156 17.8866 11.7371 18.2682C11.4586 18.6498 11.0939 18.9603 10.6727 19.1744C10.2515 19.3884 9.78575 19.5 9.3133 19.5C8.84085 19.5 8.37508 19.3884 7.9539 19.1744C7.53272 18.9603 7.16804 18.6498 6.88954 18.2682C6.61105 17.8866 6.42661 17.4445 6.35125 16.9781C6.27589 16.5117 6.31173 16.0341 6.45586 15.5842" stroke="#525252" stroke-width="1.5" stroke-linecap="round" stroke-linejoin="round"/>
<ellipse id="Ellipse 1" cx="14.7647" cy="4.67647" rx="3.17647" ry="3.17647" fill="#EF4444"/>
</g>
</svg>
