<svg width="20" height="20" viewBox="0 0 20 20" fill="none" xmlns="http://www.w3.org/2000/svg">
<g id="camera">
<g id="Icon">
<path d="M2.5 7.50004C2.5 6.57957 3.24619 5.83337 4.16667 5.83337H4.94136C5.49862 5.83337 6.019 5.55487 6.32811 5.09121L7.00522 4.07554C7.31433 3.61188 7.83472 3.33337 8.39197 3.33337H11.608C12.1653 3.33337 12.6857 3.61188 12.9948 4.07554L13.6719 5.09121C13.981 5.55487 14.5014 5.83337 15.0586 5.83337H15.8333C16.7538 5.83337 17.5 6.57957 17.5 7.50004V15C17.5 15.9205 16.7538 16.6667 15.8333 16.6667H4.16667C3.24619 16.6667 2.5 15.9205 2.5 15V7.50004Z" stroke="#F5F5F5" stroke-width="1.2" stroke-linecap="round" stroke-linejoin="round"/>
<path d="M12.5 10.8334C12.5 12.2141 11.3807 13.3334 10 13.3334C8.61929 13.3334 7.5 12.2141 7.5 10.8334C7.5 9.45266 8.61929 8.33337 10 8.33337C11.3807 8.33337 12.5 9.45266 12.5 10.8334Z" stroke="#F5F5F5" stroke-width="1.2" stroke-linecap="round" stroke-linejoin="round"/>
</g>
</g>
</svg>
