<svg width="37" height="36" viewBox="0 0 37 36" fill="none" xmlns="http://www.w3.org/2000/svg">
<g id="Media / Social icon">
<path id="bg" d="M0.5 18C0.5 27.9411 8.55888 36 18.5 36C28.4411 36 36.5 27.9411 36.5 18C36.5 8.05888 28.4411 0 18.5 0C8.55888 0 0.5 8.05888 0.5 18Z" fill="#FF0000"/>
<path id="youtube" d="M27.05 13.6125C26.825 12.825 26.2625 12.2625 25.475 12.0375C24.125 11.7 18.3875 11.7 18.3875 11.7C18.3875 11.7 12.7625 11.7 11.3 12.0375C10.5125 12.2625 9.95 12.825 9.725 13.6125C9.5 15.075 9.5 18 9.5 18C9.5 18 9.5 20.925 9.8375 22.3875C10.0625 23.175 10.625 23.7375 11.4125 23.9625C12.7625 24.3 18.5 24.3 18.5 24.3C18.5 24.3 24.125 24.3 25.5875 23.9625C26.375 23.7375 26.9375 23.175 27.1625 22.3875C27.5 20.925 27.5 18 27.5 18C27.5 18 27.5 15.075 27.05 13.6125ZM16.7 20.7V15.3L21.425 18L16.7 20.7Z" fill="white"/>
</g>
</svg>
